# xmcd
#
# Track frame offsets:
#	150
#	16804
#	37874
#	56136
#	70749
#	95671
#	112436
#	136912
#	150792
#	171082
#	191490
#
# Disc length: 2794 seconds
#
# Revision: 0
# Processed by: cddbd v1.4PL0 Copyright (c) Steve Scherf et al.
# Submitted via: dBpowerAMP V4.0
#
DISCID=8b0ae80b
DTITLE=The All Purpose Blues Band - One Night On Bourbon St.
DYEAR=1900
DGENRE=Blues
TTITLE0=Why I Sing the Blues
TTITLE1=The Thrill is Gone
TTITLE2=It Should Have Been Me
TTITLE3=Rock Me Baby
TTITLE4=How Blue Can You Get
TTITLE5=The Blues Are Alright
TTITLE6=Fool For You
TTITLE7=I Feel Good
TTITLE8=Don't Come Knockin
TTITLE9=Big Legged Woman
TTITLE10=Red House
EXTD=
EXTT0=
EXTT1=
EXTT2=
EXTT3=
EXTT4=
EXTT5=
EXTT6=
EXTT7=
EXTT8=
EXTT9=
EXTT10=
PLAYORDER=
